<svg width="145" height="41" viewBox="0 0 145 41" fill="none" xmlns="http://www.w3.org/2000/svg"> <path d="M15.44 21.936C14.8 21.936 14.3307 21.6587 14.032 21.104C13.9893 20.976 13.8827 20.784 13.712 20.528C13.584 20.272 13.4773 20.0587 13.392 19.888V19.824C13.392 19.7387 13.4133 19.6533 13.456 19.568C13.4987 19.4827 13.52 19.3973 13.52 19.312C13.52 19.1413 13.4773 18.992 13.392 18.864C13.3067 18.6933 13.264 18.5227 13.264 18.352C13.264 17.7547 13.4347 17.0507 13.776 16.24C14.16 15.4293 14.4587 14.7253 14.672 14.128C14.7573 13.7867 14.9707 13.3813 15.312 12.912C15.3547 12.8693 15.3973 12.848 15.44 12.848C15.5253 12.848 15.5893 12.8267 15.632 12.784C15.7173 12.656 15.76 12.528 15.76 12.4C15.8027 12.2293 15.8453 12.08 15.888 11.952C15.9307 11.8667 16.016 11.824 16.144 11.824C16.272 11.824 16.3573 11.7813 16.4 11.696C16.4427 11.6107 16.3787 11.568 16.208 11.568C16.0373 11.568 15.9733 11.5253 16.016 11.44C16.3147 10.8853 16.6347 10.3093 16.976 9.712C17.36 9.11467 17.616 8.73067 17.744 8.56C17.7013 8.60267 17.68 8.56 17.68 8.432C17.68 8.26133 17.6373 8.19733 17.552 8.24C17.5093 8.28267 17.4027 8.38933 17.232 8.56C17.0613 8.73067 16.9333 8.85867 16.848 8.944C16.6347 9.11467 16.3787 9.34933 16.08 9.648C15.7813 9.94667 15.5893 10.1387 15.504 10.224C15.376 10.2667 15.2053 10.4587 14.992 10.8C14.7787 11.0987 14.6293 11.2907 14.544 11.376C14.3733 11.5467 14.2027 11.632 14.032 11.632C13.9467 11.632 13.8827 11.5893 13.84 11.504C13.84 11.376 13.8827 11.248 13.968 11.12C14.0533 11.0347 14.1387 10.928 14.224 10.8C14.3093 10.6293 14.3733 10.5013 14.416 10.416C14.4587 10.3733 14.5227 10.3093 14.608 10.224C14.6933 10.096 14.736 10.0107 14.736 9.968L15.248 9.392C15.2907 9.34933 15.376 9.34933 15.504 9.392C15.632 9.392 15.7173 9.37067 15.76 9.328C15.8027 9.24267 15.7387 9.2 15.568 9.2C15.44 9.15733 15.3973 9.11467 15.44 9.072C15.824 8.38933 16.3147 7.728 16.912 7.088C17.5093 6.448 17.9147 6 18.128 5.744C18.3413 5.488 18.6187 5.296 18.96 5.168C19.344 4.99733 19.7067 4.912 20.048 4.912C20.3467 4.912 20.56 4.93333 20.688 4.976C20.944 5.06133 21.2427 5.18933 21.584 5.36C21.968 5.488 22.2027 5.68 22.288 5.936C22.416 6.192 22.3307 6.59733 22.032 7.152C21.7333 7.70667 21.3707 8.26133 20.944 8.816C20.56 9.328 20.24 9.66933 19.984 9.84C19.9413 9.88267 19.8347 9.904 19.664 9.904C19.4933 9.904 19.28 9.904 19.024 9.904C18.768 9.86133 18.6187 9.88267 18.576 9.968C18.448 10.1387 18.2987 10.3093 18.128 10.48C17.9573 10.608 17.8293 10.7787 17.744 10.992C17.7013 11.248 17.6373 11.4613 17.552 11.632C17.5093 11.8027 17.3813 12.0587 17.168 12.4C17.1253 12.4853 17.04 12.6347 16.912 12.848C16.784 13.0187 16.6987 13.1467 16.656 13.232C16.3573 14.1707 16.08 15.0667 15.824 15.92C15.6107 16.7307 15.504 17.4133 15.504 17.968C15.504 18.5227 15.6747 19.0133 16.016 19.44C16.3573 19.824 16.8053 20.016 17.36 20.016C18 20.016 18.6827 19.8027 19.408 19.376C19.8347 19.2053 20.304 18.8853 20.816 18.416C20.9013 18.3307 20.9653 18.2667 21.008 18.224C21.0933 18.1387 21.1787 18.0747 21.264 18.032H21.456C21.6693 18.032 21.776 18.1173 21.776 18.288C21.776 18.4587 21.6267 18.672 21.328 18.928C21.1573 19.056 20.9867 19.1627 20.816 19.248C20.688 19.3333 20.5387 19.44 20.368 19.568C20.1547 19.696 19.92 19.9093 19.664 20.208C19.408 20.464 19.1093 20.592 18.768 20.592H18.704C18.576 20.592 18.4693 20.5707 18.384 20.528C18.2987 20.4427 18.2133 20.4213 18.128 20.464C18 20.5067 18 20.592 18.128 20.72C18.2987 20.8053 18.32 20.8907 18.192 20.976L17.68 21.232C16.7413 21.7013 15.9947 21.936 15.44 21.936ZM5.072 21.552C4.816 21.552 4.496 21.2747 4.112 20.72C3.856 20.3787 3.728 19.8453 3.728 19.12C3.728 18.3947 3.856 17.6053 4.112 16.752C4.41067 15.8987 4.77333 15.152 5.2 14.512C5.66933 13.5733 5.98933 12.8693 6.16 12.4C6.33067 11.9307 6.50133 11.5467 6.672 11.248C6.672 11.2053 6.62933 11.1627 6.544 11.12C6.45867 11.0773 6.416 10.992 6.416 10.864C6.16 10.6933 5.88267 10.4587 5.584 10.16C5.328 9.81867 5.30667 9.49867 5.52 9.2C5.60533 9.11467 5.66933 9.072 5.712 9.072C5.75467 9.02933 5.776 9.008 5.776 9.008V8.88C5.776 8.70933 5.84 8.60267 5.968 8.56C6.13867 8.51733 6.224 8.45333 6.224 8.368C6.30933 7.77067 6.8 7.32267 7.696 7.024C8.63467 6.72533 9.46667 6.576 10.192 6.576C11.0027 6.576 11.408 6.704 11.408 6.96C11.408 7.088 11.2587 7.23733 10.96 7.408C10.832 7.45067 10.6187 7.62133 10.32 7.92C10.0213 8.21867 9.744 8.58133 9.488 9.008L9.04 9.776L8.592 10.352C8.336 10.8213 8.05867 11.312 7.76 11.824C7.504 12.2933 7.07733 13.1893 6.48 14.512C6.30933 14.9387 6.16 15.344 6.032 15.728C5.94667 16.112 5.94667 16.4107 6.032 16.624C6.07467 16.6667 5.92533 16.816 5.584 17.072C5.28533 17.328 5.15733 17.4773 5.2 17.52C5.24267 17.52 5.30667 17.5413 5.392 17.584C5.47733 17.584 5.584 17.584 5.712 17.584C5.968 17.584 6.224 17.5413 6.48 17.456C6.608 17.4133 6.71467 17.328 6.8 17.2C6.88533 17.0293 6.94933 16.944 6.992 16.944C7.248 16.944 7.52533 16.88 7.824 16.752C8.29333 16.5387 8.86933 16.112 9.552 15.472C9.63733 15.3867 9.808 15.3227 10.064 15.28C10.32 15.1947 10.5333 15.0453 10.704 14.832C11.216 14.3627 11.5147 14.0853 11.6 14C11.6853 13.872 11.9413 13.5947 12.368 13.168C12.368 13.1253 12.4533 12.9333 12.624 12.592C12.7947 12.208 12.88 11.9947 12.88 11.952C12.9653 11.7387 13.0507 11.632 13.136 11.632C13.3067 11.632 13.4347 11.7813 13.52 12.08C13.648 12.3787 13.648 12.6347 13.52 12.848C13.4773 12.8907 13.3707 12.976 13.2 13.104C13.072 13.232 12.9653 13.3387 12.88 13.424L12.048 14.256L10.32 15.792C10.2773 15.8347 10.2347 15.8987 10.192 15.984C10.1493 16.0693 10.0853 16.1547 10 16.24L9.424 17.136C9.38133 17.2213 9.296 17.2213 9.168 17.136C9.04 17.008 8.86933 17.0293 8.656 17.2C8.61333 17.2427 8.57067 17.328 8.528 17.456C8.528 17.584 8.50667 17.6907 8.464 17.776C8.42133 17.904 8.42133 17.9893 8.464 18.032C8.50667 18.032 8.528 18.0533 8.528 18.096C8.48533 18.224 8.4 18.3093 8.272 18.352C8.18667 18.3947 8.10133 18.4587 8.016 18.544C7.97333 18.5867 7.97333 18.6507 8.016 18.736C8.05867 18.8213 8.03733 18.9067 7.952 18.992C7.90933 19.12 7.86667 19.1627 7.824 19.12C7.78133 19.0773 7.71733 19.0987 7.632 19.184C7.58933 19.2267 7.52533 19.2907 7.44 19.376C7.39733 19.4187 7.33333 19.4613 7.248 19.504C6.90667 19.632 6.71467 19.8027 6.672 20.016C6.62933 20.2293 6.48 20.464 6.224 20.72C5.66933 21.2747 5.28533 21.552 5.072 21.552ZM6.4375 40.176C5.7975 40.176 5.24283 40.112 4.7735 39.984C4.47483 39.8987 4.17617 39.792 3.8775 39.664C3.57883 39.536 3.25883 39.3867 2.9175 39.216L2.7895 39.152C2.61883 39.0667 2.42683 38.9387 2.2135 38.768C2.00017 38.64 1.78683 38.5333 1.5735 38.448C1.40283 38.4053 1.16817 38.2773 0.869499 38.064C0.656166 37.8933 0.528166 37.7227 0.485498 37.552C0.400165 37.3813 0.421499 37.2747 0.5495 37.232C0.592166 37.232 0.656165 37.2533 0.741499 37.296C0.826832 37.3813 0.912166 37.4453 0.997499 37.488C1.08283 37.5307 1.1895 37.5947 1.3175 37.68C1.40283 37.7653 1.48817 37.8293 1.5735 37.872C1.78683 37.9573 1.97883 38.0213 2.1495 38.064C2.2775 38.1493 2.42683 38.2347 2.5975 38.32C2.9815 38.4907 3.25883 38.5973 3.4295 38.64C3.60017 38.6827 3.85617 38.7253 4.1975 38.768L5.0295 38.832C6.52283 38.9173 7.80283 38.7253 8.8695 38.256C9.93617 37.7867 10.8962 37.168 11.7495 36.4C12.5602 35.6747 13.3068 34.928 13.9895 34.16C14.1175 33.8187 14.2668 33.4987 14.4375 33.2C14.5655 32.9013 14.7148 32.688 14.8855 32.56C14.9282 32.5173 14.9708 32.5387 15.0135 32.624C15.0562 32.752 15.0988 32.7947 15.1415 32.752C15.2268 32.624 15.2908 32.4107 15.3335 32.112C15.3762 31.856 15.4402 31.664 15.5255 31.536C15.6108 31.4507 15.6962 31.472 15.7815 31.6C15.8242 31.728 15.8668 31.7707 15.9095 31.728C15.9948 31.6427 16.0375 31.472 16.0375 31.216C16.0375 31.0027 16.0588 30.8533 16.1015 30.768C16.5708 30.1707 16.9762 29.616 17.3175 29.104C17.6588 28.592 18.0428 27.9947 18.4695 27.312C18.6828 26.9707 18.9602 26.5867 19.3015 26.16C19.6002 25.7333 19.8988 25.3067 20.1975 24.88C20.5388 24.1547 20.9228 23.5573 21.3495 23.088V22.96C21.3495 22.7893 21.3922 22.6187 21.4775 22.448C21.5628 22.2773 21.6268 22.128 21.6695 22C21.7548 21.6587 21.8402 21.4453 21.9255 21.36C22.0108 21.2747 22.0748 21.04 22.1175 20.656H22.1815C21.9682 20.144 21.9255 19.696 22.0535 19.312C22.1388 19.1413 22.2882 18.9493 22.5015 18.736C22.7575 18.48 22.9495 18.2667 23.0775 18.096C23.1628 17.8827 23.1842 17.7547 23.1415 17.712V17.52C23.1415 17.2213 23.2055 16.9653 23.3335 16.752C23.5042 16.5387 23.6535 16.2827 23.7815 15.984C23.8242 15.8133 23.9095 15.728 24.0375 15.728H24.2295C24.3148 15.728 24.3575 15.664 24.3575 15.536C24.3575 15.4507 24.3362 15.344 24.2935 15.216C24.2935 15.0453 24.2722 14.8747 24.2295 14.704C24.2722 14.4053 24.4002 14.2133 24.6135 14.128H24.7415C24.8268 13.5733 24.9122 13.1893 24.9975 12.976C25.0828 12.72 25.1895 12.5067 25.3175 12.336L25.8935 11.568L26.0855 10.864C26.1708 10.6933 26.2562 10.5653 26.3415 10.48C26.4268 10.352 26.5122 10.2453 26.5975 10.16V10.096C26.6402 9.968 26.7042 9.86133 26.7895 9.776C26.8748 9.648 26.9388 9.54133 26.9815 9.456L27.2375 8.944C27.2375 8.85867 27.3228 8.66667 27.4935 8.368C27.6642 8.06933 27.7708 7.89867 27.8135 7.856C28.0695 7.38667 28.2615 7.06667 28.3895 6.896C28.5602 6.72533 28.8162 6.42667 29.1575 6C29.2428 5.82933 29.3708 5.616 29.5415 5.36C29.7548 5.06133 29.9468 4.784 30.1175 4.528L29.0935 4.72C29.0082 4.76267 28.9655 4.80533 28.9655 4.848C28.9655 4.848 28.9228 4.848 28.8375 4.848C28.7522 4.89067 28.6242 4.93333 28.4535 4.976C28.2828 5.01867 28.1548 5.04 28.0695 5.04C27.9415 5.04 27.7708 5.04 27.5575 5.04C27.3442 4.99733 27.1308 4.976 26.9175 4.976C26.8748 4.976 26.8322 4.93333 26.7895 4.848C26.7468 4.76267 26.6828 4.74133 26.5975 4.784C26.5548 4.784 26.4695 4.82667 26.3415 4.912C26.2135 4.99733 26.1068 5.06133 26.0215 5.104C25.9788 5.104 25.9362 5.104 25.8935 5.104C25.8508 5.06133 25.8082 5.06133 25.7655 5.104C25.7228 5.104 25.6588 5.12533 25.5735 5.168C25.5308 5.21067 25.4668 5.25333 25.3815 5.296C25.1682 5.33867 24.9335 5.40267 24.6775 5.488C24.4215 5.53067 24.1442 5.616 23.8455 5.744H23.7175C23.5895 5.744 23.5255 5.68 23.5255 5.552C23.5255 5.296 23.6535 5.14667 23.9095 5.104C24.2082 5.01867 24.5708 4.89067 24.9975 4.72C25.4242 4.54933 25.8508 4.42133 26.2775 4.336C26.4055 4.336 26.5122 4.31467 26.5975 4.272C26.7255 4.22933 26.8322 4.208 26.9175 4.208C27.0455 4.208 27.1522 4.18667 27.2375 4.144C27.3655 4.10133 27.4935 4.08 27.6215 4.08C27.7068 3.99467 27.7708 3.952 27.8135 3.952C28.1548 3.952 28.4962 3.86667 28.8375 3.696C29.1788 3.48267 29.5628 3.26933 29.9895 3.056C30.2455 2.97067 30.4802 2.8 30.6935 2.544C30.9495 2.288 31.1202 2.13867 31.2055 2.096C31.2908 2.01067 31.3548 1.92533 31.3975 1.84C31.4828 1.75467 31.6108 1.66933 31.7815 1.584C31.9522 1.328 32.1655 1.05067 32.4215 0.751999C32.7202 0.453332 33.1042 0.282666 33.5735 0.24C33.7442 0.24 34.0428 0.282666 34.4695 0.367998C34.9388 0.410666 35.1948 0.431999 35.2375 0.431999C35.4082 0.474665 35.4935 0.623999 35.4935 0.879999C35.4935 1.30667 35.3442 1.60533 35.0455 1.776C34.9602 1.81867 34.9175 1.94667 34.9175 2.16C34.9602 2.33067 34.9388 2.45867 34.8535 2.544L33.8935 3.056C33.6375 3.184 33.4455 3.312 33.3175 3.44C33.2322 3.52533 33.0402 3.61067 32.7415 3.696C32.6562 3.696 32.5282 3.71733 32.3575 3.76C32.2295 3.80267 32.1015 3.84533 31.9735 3.888C31.8455 4.144 31.6962 4.35733 31.5255 4.528C31.3975 4.656 31.2268 4.912 31.0135 5.296C30.5868 5.97867 30.3735 6.384 30.3735 6.512C30.3735 6.59733 30.3095 6.74667 30.1815 6.96C30.1388 7.00267 30.0962 7.10933 30.0535 7.28C30.0108 7.408 29.9682 7.51467 29.9255 7.6L29.0295 8.944C29.0295 8.98667 28.9442 9.09333 28.7735 9.264C28.6028 9.392 28.4962 9.49867 28.4535 9.584C28.4108 9.66933 28.3895 9.73333 28.3895 9.776C28.4322 9.81867 28.4535 9.86133 28.4535 9.904C28.4535 10.032 28.3895 10.1173 28.2615 10.16C28.1762 10.2027 28.1335 10.2453 28.1335 10.288C28.0908 10.3307 28.0482 10.352 28.0055 10.352C28.0055 10.3093 27.9628 10.3307 27.8775 10.416C27.8348 10.4587 27.7922 10.5867 27.7495 10.8C27.7495 10.9707 27.7282 11.0773 27.6855 11.12C27.4295 11.5467 27.2802 11.9733 27.2375 12.4C27.1948 12.784 27.0242 13.2107 26.7255 13.68C26.4695 14.2347 26.4055 14.512 26.5335 14.512C26.6615 14.512 26.7255 14.512 26.7255 14.512C27.3228 13.9147 28.1762 13.04 29.2855 11.888C30.4375 10.6933 31.6108 9.56267 32.8055 8.496C32.9335 8.368 33.0615 8.19733 33.1895 7.984C33.3175 7.77067 33.4455 7.62133 33.5735 7.536C33.8722 7.23733 34.1922 7.00267 34.5335 6.832C34.8748 6.61867 35.1948 6.384 35.4935 6.128C35.7068 5.95733 35.8988 5.85067 36.0695 5.808C36.2828 5.76533 36.4748 5.68 36.6455 5.552C36.7308 5.50933 36.7522 5.46667 36.7095 5.424C36.6668 5.33867 36.6882 5.27467 36.7735 5.232C37.2428 4.976 37.4988 4.82667 37.5415 4.784C37.5842 4.74133 37.7548 4.67733 38.0535 4.592C38.5228 4.42133 39.0562 4.336 39.6535 4.336C40.0375 4.336 40.2722 4.35733 40.3575 4.4C40.5708 4.528 40.8055 4.63467 41.0615 4.72C41.3175 4.80533 41.4455 5.06133 41.4455 5.488C41.4455 5.70133 41.4668 5.82933 41.5095 5.872C41.5522 5.872 41.5735 6.02133 41.5735 6.32C41.5735 6.53333 41.5308 6.87467 41.4455 7.344C41.4028 7.81333 41.3602 8.176 41.3175 8.432L41.0615 10.032C41.0188 10.16 41.0188 10.288 41.0615 10.416C41.1042 10.544 41.1042 10.672 41.0615 10.8C41.0188 10.8427 40.9548 10.9067 40.8695 10.992C40.7842 11.0773 40.7202 11.1627 40.6775 11.248C40.3788 11.2907 40.1655 11.44 40.0375 11.696C39.9522 11.9093 40.0588 11.9947 40.3575 11.952C40.3148 11.9947 40.2295 12.0587 40.1015 12.144C40.0162 12.2293 39.9522 12.3147 39.9095 12.4C39.8668 12.4427 39.8882 12.4853 39.9735 12.528C40.0588 12.528 40.0162 12.6773 39.8455 12.976C39.7175 13.1893 39.5895 13.4667 39.4615 13.808C39.3335 14.1493 39.2055 14.4267 39.0775 14.64C38.9495 14.8107 38.8215 14.9173 38.6935 14.96C38.6082 15.0027 38.5015 15.1093 38.3735 15.28C38.3308 15.3653 38.3095 15.4507 38.3095 15.536C38.3095 15.6213 38.2668 15.7067 38.1815 15.792C38.1388 15.8773 38.0535 15.9413 37.9255 15.984C37.8402 16.0267 37.7548 16.0907 37.6695 16.176C36.3042 17.7973 34.6402 19.2693 32.6775 20.592C30.7575 21.9147 28.7095 22.7467 26.5335 23.088C26.4055 23.088 26.2775 23.088 26.1495 23.088C26.0642 23.1307 25.9788 23.152 25.8935 23.152C25.2108 23.152 24.6775 22.9813 24.2935 22.64C23.9522 22.2987 23.6322 21.936 23.3335 21.552C23.2482 21.8507 23.1628 22.128 23.0775 22.384C22.9922 22.6827 22.9068 22.9813 22.8215 23.28C22.7362 23.5787 22.6722 23.92 22.6295 24.304C22.6295 24.688 22.5228 24.9227 22.3095 25.008C22.1815 25.0507 22.0748 24.9867 21.9895 24.816C21.9042 24.6453 21.8615 24.7947 21.8615 25.264C21.9468 25.3067 21.9682 25.392 21.9255 25.52C21.8402 25.648 21.7975 25.7547 21.7975 25.84C21.8402 25.9253 21.8615 26.0533 21.8615 26.224C21.8615 26.4373 21.7975 26.6293 21.6695 26.8C21.4988 26.9707 21.3708 27.1627 21.2855 27.376C21.2428 27.504 21.1575 27.568 21.0295 27.568C20.9868 27.568 20.9228 27.5467 20.8375 27.504C20.7522 27.4613 20.6882 27.44 20.6455 27.44C20.6028 27.44 20.5815 27.4827 20.5815 27.568C20.5815 27.6533 20.6455 27.952 20.7735 28.464C20.7735 28.72 20.6455 28.848 20.3895 28.848H20.1975C20.1548 29.3173 20.0908 29.6587 20.0055 29.872C19.9202 30.128 19.8135 30.32 19.6855 30.448L19.2375 30.768C18.8108 31.1093 18.5122 31.6 18.3415 32.24C18.2988 32.368 18.2135 32.4747 18.0855 32.56C17.9148 32.6453 17.7868 32.752 17.7015 32.88C17.7015 32.9227 17.7015 32.944 17.7015 32.944C17.6588 32.944 17.6375 32.9653 17.6375 33.008C17.6375 33.52 17.4242 34.032 16.9975 34.544C16.5282 35.056 16.0588 35.504 15.5895 35.888C15.5042 36.0587 15.3975 36.2293 15.2695 36.4C15.1415 36.5707 14.9922 36.72 14.8215 36.848C14.6082 37.0613 14.3735 37.1893 14.1175 37.232C13.8188 37.2747 13.5415 37.4027 13.2855 37.616C13.2002 37.6587 13.1788 37.7653 13.2215 37.936C13.2642 38.1493 13.2428 38.2773 13.1575 38.32C12.1762 38.9173 11.0668 39.3653 9.8295 39.664C8.59217 40.0053 7.4615 40.176 6.4375 40.176ZM26.7255 21.872C27.1095 21.872 27.6642 21.7867 28.3895 21.616C29.1148 21.4027 29.7762 21.1253 30.3735 20.784C30.5868 20.6987 30.7788 20.592 30.9495 20.464C31.1628 20.2933 31.3548 20.1227 31.5255 19.952C31.6962 19.7813 31.8028 19.6107 31.8455 19.44C32.0162 19.184 32.2722 18.9067 32.6135 18.608L32.9335 18.416C33.1042 18.2453 33.2748 17.9467 33.4455 17.52H33.5735C33.7442 17.4773 33.8508 17.392 33.8935 17.264L34.2135 17.136C34.2135 17.008 34.2562 16.9013 34.3415 16.816C34.4268 16.6453 34.5762 16.4533 34.7895 16.24C35.0028 15.984 35.1095 15.7707 35.1095 15.6C35.1095 15.5573 35.0668 15.4933 34.9815 15.408C35.0242 15.3227 35.1095 15.1733 35.2375 14.96C35.4082 14.704 35.5148 14.5333 35.5575 14.448L35.9415 14.384L36.1335 14V13.872C36.6882 13.872 36.9228 13.6587 36.8375 13.232L37.2855 12.016C37.3708 11.6747 37.4988 11.44 37.6695 11.312C37.6695 11.1413 37.6908 11.0347 37.7335 10.992C37.7762 10.9493 37.8188 10.864 37.8615 10.736C37.9895 10.3947 38.1175 9.94667 38.2455 9.392C38.4162 8.83733 38.5015 8.56 38.5015 8.56L38.3095 8.176C38.3095 8.09067 38.2455 7.96267 38.1175 7.792C38.0322 7.62133 38.0108 7.472 38.0535 7.344C38.1388 7.04533 38.2882 6.85333 38.5015 6.768C38.7575 6.68267 38.8002 6.61867 38.6295 6.576H38.5655C38.4375 6.576 38.2882 6.59733 38.1175 6.64C37.9895 6.68267 37.8188 6.74667 37.6055 6.832C37.3495 6.91733 37.1148 6.93867 36.9015 6.896C36.6882 6.85333 36.5175 6.87467 36.3895 6.96C35.9628 7.088 35.5148 7.30133 35.0455 7.6C34.5762 7.856 34.0642 8.21867 33.5095 8.688C33.4668 8.73067 33.4028 8.816 33.3175 8.944C33.2322 9.072 33.1468 9.17867 33.0615 9.264C33.0188 9.30667 32.9335 9.328 32.8055 9.328C32.7202 9.328 32.6348 9.37067 32.5495 9.456C32.5068 9.49867 32.5068 9.56267 32.5495 9.648C32.5922 9.73333 32.5922 9.81867 32.5495 9.904C32.4642 9.94667 32.3788 9.98933 32.2935 10.032C32.2082 10.0747 32.1228 10.1387 32.0375 10.224L31.8455 10.544C31.1202 11.3547 30.2242 12.2507 29.1575 13.232C28.1335 14.2133 27.2588 15.1733 26.5335 16.112L35.7495 12.592C36.0055 12.464 36.2402 12.4 36.4535 12.4C36.5388 12.3573 36.6455 12.4 36.7735 12.528C36.8162 12.6133 36.7735 12.6987 36.6455 12.784C36.5602 12.8693 36.4962 12.8907 36.4535 12.848L36.1335 12.784C36.0908 12.8267 36.0055 12.8907 35.8775 12.976C35.7922 13.0613 35.7068 13.104 35.6215 13.104L35.3015 13.232C35.2588 13.2747 35.1735 13.296 35.0455 13.296C34.9175 13.296 34.8322 13.3173 34.7895 13.36C34.7042 13.4027 34.6402 13.4453 34.5975 13.488C34.5548 13.488 34.4908 13.5307 34.4055 13.616C33.4242 14.0427 32.3575 14.5333 31.2055 15.088C30.0535 15.6 28.9868 16.112 28.0055 16.624C26.7682 17.3067 25.9148 17.968 25.4455 18.608C24.9762 19.2053 24.7415 19.7387 24.7415 20.208C24.7415 20.592 24.8482 20.9333 25.0615 21.232C25.2748 21.488 25.5308 21.6587 25.8295 21.744C26.1282 21.8293 26.4268 21.872 26.7255 21.872ZM53.465 22.192C53.209 22.192 53.081 22.0427 53.081 21.744C53.081 21.5307 53.145 21.2747 53.273 20.976C53.6143 20.2507 53.9983 19.2267 54.425 17.904C54.8943 16.5813 55.4703 15.4507 56.153 14.512C56.6223 13.5733 57.049 12.656 57.433 11.76C57.8597 10.8213 58.265 9.88267 58.649 8.944C58.649 8.944 58.6063 8.92267 58.521 8.88C58.4357 8.79467 58.393 8.70933 58.393 8.624C58.1797 8.45333 57.9237 8.21867 57.625 7.92C57.3263 7.57867 57.305 7.23733 57.561 6.896C57.6463 6.81067 57.689 6.768 57.689 6.768C57.7317 6.768 57.753 6.768 57.753 6.768C57.753 6.72533 57.7317 6.704 57.689 6.704C57.689 6.704 57.689 6.68267 57.689 6.64L57.625 6.576C57.5823 6.576 57.5397 6.576 57.497 6.576C57.497 6.53333 57.4757 6.512 57.433 6.512C57.2623 6.512 57.0703 6.55467 56.857 6.64C56.6437 6.68267 56.4303 6.704 56.217 6.704C55.961 6.704 55.6197 6.81067 55.193 7.024C54.7663 7.19467 54.3823 7.344 54.041 7.472C53.8703 7.51467 53.7637 7.536 53.721 7.536C53.721 7.49333 53.6357 7.51467 53.465 7.6C53.4223 7.64267 53.4223 7.57867 53.465 7.408C53.5503 7.19467 53.593 7.04533 53.593 6.96C53.593 6.91733 53.5717 6.896 53.529 6.896C53.4437 6.896 53.273 7.024 53.017 7.28C52.761 7.49333 52.5903 7.62133 52.505 7.664C52.4623 7.70667 52.441 7.77067 52.441 7.856C52.4837 7.94133 52.505 8.02667 52.505 8.112C52.505 8.24 52.3983 8.38933 52.185 8.56C51.9717 8.688 51.8223 8.79467 51.737 8.88C51.5663 9.008 51.353 9.09333 51.097 9.136C50.8837 9.136 50.6703 9.22133 50.457 9.392C50.201 9.56267 50.073 9.69067 50.073 9.776C50.1157 9.86133 49.9877 10.0107 49.689 10.224C49.305 10.5227 48.7717 10.9707 48.089 11.568C47.449 12.1653 46.9583 12.6987 46.617 13.168C45.8063 14.1493 45.0597 15.28 44.377 16.56C43.737 17.84 43.417 18.8427 43.417 19.568C43.417 20.1227 43.6517 20.4 44.121 20.4C44.2063 20.4 44.2917 20.4 44.377 20.4C44.4623 20.3573 44.569 20.3147 44.697 20.272L46.361 19.312L46.745 19.248V19.184L47.001 19.376C47.0437 19.3333 47.0223 19.2693 46.937 19.184C46.8943 19.056 46.8943 18.992 46.937 18.992C46.9797 18.992 47.001 19.0133 47.001 19.056C47.0437 19.056 47.0863 19.056 47.129 19.056L47.257 18.864C47.257 18.864 47.321 18.8853 47.449 18.928C47.6197 18.928 47.7477 18.8853 47.833 18.8C47.961 18.7573 47.9823 18.6933 47.897 18.608C47.8543 18.5227 47.7903 18.4587 47.705 18.416L48.153 18.032C48.1957 17.9467 48.3663 17.8613 48.665 17.776C49.3903 17.3067 49.9877 16.752 50.457 16.112C50.969 15.4293 51.545 14.8107 52.185 14.256H52.249L53.017 13.488L52.953 13.296L53.785 12.336H53.913C53.9557 12.2507 54.041 12.144 54.169 12.016C54.3397 11.888 54.4463 11.7813 54.489 11.696C54.5743 11.6533 54.7663 11.44 55.065 11.056C55.4063 10.6293 55.7263 10.288 56.025 10.032C56.3663 9.776 56.5583 9.648 56.601 9.648C56.6437 9.648 56.665 9.66933 56.665 9.712C56.665 9.84 56.601 10.032 56.473 10.288C56.3877 10.544 56.3023 10.7147 56.217 10.8C55.9183 11.2693 55.5343 11.8027 55.065 12.4C54.5957 12.9547 54.3183 13.296 54.233 13.424C53.721 13.9787 53.1023 14.7253 52.377 15.664C51.6517 16.56 50.8623 17.456 50.009 18.352C49.1557 19.248 48.3023 20.016 47.449 20.656C46.6383 21.2533 45.8703 21.552 45.145 21.552C44.4623 21.552 43.737 21.3387 42.969 20.912C42.201 20.4853 41.817 19.6747 41.817 18.48C41.817 18.096 41.8597 17.6693 41.945 17.2C42.073 16.688 42.265 16.1547 42.521 15.6C42.521 15.6 42.5637 15.5573 42.649 15.472C42.7343 15.344 42.7983 15.3013 42.841 15.344C42.9263 15.216 42.9477 15.088 42.905 14.96C42.905 14.7893 42.905 14.6827 42.905 14.64L43.033 14.512C43.1183 14.0427 43.4383 13.616 43.993 13.232C44.5477 12.848 44.8463 12.5493 44.889 12.336C44.9317 12.2933 44.953 12.2293 44.953 12.144L45.209 11.312V11.056H45.465L45.657 10.8L45.721 10.672C45.6357 10.6293 45.657 10.5653 45.785 10.48C45.9557 10.352 46.041 10.288 46.041 10.288C46.0837 10.2027 46.1263 10.1387 46.169 10.096C46.2543 10.0533 46.3183 10.0107 46.361 9.968H46.809C46.8943 9.84 46.8517 9.776 46.681 9.776C46.5103 9.776 46.425 9.776 46.425 9.776C46.425 9.73333 46.425 9.712 46.425 9.712C46.4677 9.66933 46.489 9.62667 46.489 9.584L47.193 9.008C47.4063 8.83733 47.6197 8.688 47.833 8.56C48.0463 8.432 48.2383 8.28267 48.409 8.112C48.537 8.112 48.5583 8.176 48.473 8.304C48.5157 8.38933 48.5583 8.38933 48.601 8.304C48.6863 8.21867 48.729 8.176 48.729 8.176L49.049 8.112V8.048C49.049 7.96267 49.0703 7.83467 49.113 7.664C49.1557 7.49333 49.177 7.38667 49.177 7.344C50.073 6.66133 51.0117 6.064 51.993 5.552C52.9743 4.99733 53.9343 4.72 54.873 4.72C55.9823 4.72 56.985 5.14667 57.881 6L58.201 6.192C58.2437 6.192 58.265 6.17067 58.265 6.128C58.3503 5.53067 58.841 5.08267 59.737 4.784C60.6757 4.48533 61.5077 4.336 62.233 4.336C63.001 4.336 63.385 4.44267 63.385 4.656C63.385 4.74133 63.257 4.89067 63.001 5.104C62.873 5.18933 62.6597 5.38133 62.361 5.68C62.0623 5.97867 61.7637 6.34133 61.465 6.768C61.4223 6.896 61.3583 7.024 61.273 7.152C61.1877 7.28 61.1023 7.408 61.017 7.536C60.9743 7.62133 60.9103 7.728 60.825 7.856C60.7823 7.94133 60.7183 8.02667 60.633 8.112C59.9077 9.34933 59.3317 10.3947 58.905 11.248C58.4783 12.1013 57.9663 13.1893 57.369 14.512C57.2837 14.768 57.241 14.9173 57.241 14.96C57.241 15.3013 57.433 15.472 57.817 15.472C58.073 15.472 58.329 15.408 58.585 15.28L59.225 15.024C60.249 14.0853 61.3157 13.296 62.425 12.656C62.4677 12.656 62.489 12.656 62.489 12.656C62.5317 12.6133 62.5743 12.592 62.617 12.592C62.745 12.592 62.8303 12.6773 62.873 12.848C62.9157 12.976 62.873 13.0827 62.745 13.168C61.5077 13.8507 60.3557 14.7253 59.289 15.792C59.2463 15.8773 59.2037 15.9627 59.161 16.048C59.1183 16.1333 59.0543 16.2187 58.969 16.304C58.841 16.3893 58.713 16.5387 58.585 16.752C58.457 16.9653 58.393 17.0933 58.393 17.136C58.3503 17.264 58.2863 17.3067 58.201 17.264C58.1583 17.2213 58.0303 17.2853 57.817 17.456C57.7743 17.4987 57.7317 17.584 57.689 17.712C57.689 17.84 57.6677 17.9467 57.625 18.032C57.5397 18.16 57.4543 18.2667 57.369 18.352C57.2837 18.3947 57.241 18.4373 57.241 18.48C57.1983 18.6507 57.113 18.7573 56.985 18.8C56.8997 18.8 56.8143 18.8427 56.729 18.928C56.6863 18.928 56.665 18.9493 56.665 18.992C56.665 19.376 56.6223 19.5467 56.537 19.504C56.4517 19.4613 56.3663 19.504 56.281 19.632C56.1957 19.8027 56.089 19.888 55.961 19.888C55.705 19.9733 55.5983 20.0373 55.641 20.08C55.7263 20.1227 55.7903 20.1653 55.833 20.208C55.9183 20.208 55.8543 20.272 55.641 20.4C55.5557 20.4427 55.4703 20.5707 55.385 20.784C55.2997 20.9547 55.2143 21.0827 55.129 21.168C55.001 21.2533 54.873 21.3173 54.745 21.36C54.617 21.4027 54.5103 21.488 54.425 21.616C54.041 22 53.721 22.192 53.465 22.192ZM67.702 22.256C67.6593 22.256 67.5953 22.2133 67.51 22.128C67.4247 22.0853 67.3607 22.064 67.318 22.064C67.1473 22.1067 66.998 22.128 66.87 22.128C66.742 22.128 66.614 22.128 66.486 22.128C66.4433 22.128 66.4007 22.1067 66.358 22.064C66.358 22.0213 66.3367 22 66.294 22C66.2513 22 66.23 22 66.23 22C66.2727 22.0427 66.2727 22.064 66.23 22.064C66.23 22.064 66.1873 22.0427 66.102 22C66.0167 21.9573 65.9527 21.936 65.91 21.936L65.846 21.872C65.7607 21.872 65.6967 21.8507 65.654 21.808C65.654 21.7653 65.6327 21.744 65.59 21.744L65.526 21.808L65.462 21.744C65.3767 21.7013 65.2487 21.6587 65.078 21.616C64.95 21.5307 64.8433 21.4667 64.758 21.424C64.6727 21.424 64.566 21.36 64.438 21.232H64.31C64.2247 21.104 64.0753 21.0187 63.862 20.976C63.862 20.9333 63.8407 20.8907 63.798 20.848H63.734C63.6487 20.72 63.5847 20.6773 63.542 20.72C63.4993 20.6347 63.4353 20.5707 63.35 20.528C63.3073 20.4427 63.2433 20.3787 63.158 20.336C63.158 20.1653 63.1153 20.08 63.03 20.08C63.03 19.9947 62.9447 19.8667 62.774 19.696C62.646 19.5253 62.5607 19.376 62.518 19.248L62.454 19.184C62.2833 19.0133 62.1553 18.736 62.07 18.352C62.0273 18.1813 61.9847 18.1173 61.942 18.16C61.942 18.2027 61.9207 18.096 61.878 17.84C61.878 17.7973 61.878 17.7333 61.878 17.648C61.9207 17.52 61.9207 17.4347 61.878 17.392C61.878 17.3493 61.8567 17.328 61.814 17.328C61.814 17.2853 61.814 17.2427 61.814 17.2C61.7713 17.1573 61.75 17.136 61.75 17.136C61.7927 17.0933 61.814 17.072 61.814 17.072C61.814 16.9867 61.7927 16.944 61.75 16.944C61.75 16.9013 61.75 16.8587 61.75 16.816V16.688C61.75 16.4747 61.7927 16.3253 61.878 16.24C61.878 16.1547 61.8993 16.0907 61.942 16.048C61.9847 16.0053 62.006 15.9627 62.006 15.92C62.006 15.8347 62.0487 15.792 62.134 15.792C62.2193 15.792 62.262 15.7707 62.262 15.728C62.262 15.6427 62.2833 15.6 62.326 15.6C62.4113 15.5573 62.4753 15.5147 62.518 15.472C62.518 15.4293 62.5393 15.3867 62.582 15.344C62.6673 15.3013 62.71 15.2587 62.71 15.216C62.9233 15.088 63.158 15.024 63.414 15.024C63.926 15.024 64.182 15.152 64.182 15.408C64.182 15.4933 64.054 15.6427 63.798 15.856C63.7553 15.984 63.734 16.0693 63.734 16.112C63.7767 16.112 63.7553 16.1547 63.67 16.24C63.7127 16.368 63.734 16.5387 63.734 16.752C63.6913 16.752 63.67 16.816 63.67 16.944C63.7127 17.0293 63.734 17.072 63.734 17.072C63.734 17.1147 63.7553 17.2427 63.798 17.456C63.8833 17.6693 63.9473 17.7973 63.99 17.84C63.99 17.84 64.0327 17.9467 64.118 18.16C64.2033 18.3307 64.246 18.4373 64.246 18.48V18.608C64.3313 18.736 64.374 18.8213 64.374 18.864C64.4167 18.864 64.5873 18.9493 64.886 19.12C64.9287 19.1627 65.014 19.184 65.142 19.184C65.3553 19.312 65.5047 19.4187 65.59 19.504C65.718 19.5893 66.0167 19.6747 66.486 19.76C66.6567 19.8027 66.7207 19.8453 66.678 19.888C66.678 19.888 66.7633 19.888 66.934 19.888C66.934 19.888 66.934 19.9093 66.934 19.952C66.934 19.952 66.9553 19.952 66.998 19.952C67.0833 19.9093 67.1687 19.9093 67.254 19.952C67.3393 19.952 67.4247 19.9307 67.51 19.888H67.766C68.0647 19.888 68.3847 19.8453 68.726 19.76L69.686 19.504C69.9847 19.4613 70.262 19.376 70.518 19.248C70.774 19.12 71.0087 18.992 71.222 18.864C71.2647 18.864 71.3927 18.8 71.606 18.672C71.8193 18.5013 72.0753 18.3307 72.374 18.16C72.3313 18.032 72.31 17.8613 72.31 17.648C72.31 17.52 72.374 17.456 72.502 17.456C72.63 17.4133 72.7153 17.3493 72.758 17.264C72.63 17.1787 72.4593 17.136 72.246 17.136C72.0753 17.136 72.0113 17.072 72.054 16.944C71.8833 16.0053 71.6273 15.152 71.286 14.384C70.9873 13.616 70.6247 12.7627 70.198 11.824C70.1553 11.696 70.07 11.4827 69.942 11.184C69.814 10.8853 69.7287 10.6507 69.686 10.48C69.686 10.4373 69.7287 10.4373 69.814 10.48C69.8993 10.48 69.9207 10.4587 69.878 10.416C69.8353 10.2027 69.7927 9.98933 69.75 9.776C69.75 9.56267 69.7287 9.37067 69.686 9.2C69.6433 9.11467 69.686 9.05067 69.814 9.008C69.942 8.96533 69.9847 8.90133 69.942 8.816C69.8993 8.73067 69.814 8.70933 69.686 8.752C69.558 8.79467 69.4727 8.77333 69.43 8.688L69.238 7.92C69.238 7.70667 69.1953 7.57867 69.11 7.536C69.0673 7.49333 69.11 7.408 69.238 7.28C69.3233 7.23733 69.366 7.17333 69.366 7.088C69.366 6.96 69.3873 6.87467 69.43 6.832C69.6433 6.704 69.7287 6.55467 69.686 6.384C69.6433 6.17067 69.686 5.97867 69.814 5.808C69.942 5.63733 70.0487 5.488 70.134 5.36C70.2193 5.18933 70.3473 5.08267 70.518 5.04C70.646 4.95467 70.6887 4.976 70.646 5.104C70.6033 5.232 70.6033 5.296 70.646 5.296C70.8593 5.296 70.9447 5.18933 70.902 4.976C70.8593 4.76267 70.9233 4.57067 71.094 4.4C71.3927 4.144 71.8407 3.93067 72.438 3.76C73.0353 3.58933 73.4833 3.48267 73.782 3.44C73.8673 3.44 73.9313 3.44 73.974 3.44C74.0593 3.39733 74.1233 3.376 74.166 3.376C74.3793 3.376 74.5927 3.39733 74.806 3.44C75.062 3.48267 75.2967 3.52533 75.51 3.568C75.6807 3.61067 75.9367 3.78133 76.278 4.08C76.6193 4.336 76.8753 4.4 77.046 4.272C77.43 3.93067 77.8353 3.632 78.262 3.376C78.7313 3.12 79.03 3.01333 79.158 3.056C79.4993 3.09867 79.798 3.20533 80.054 3.376C80.31 3.504 80.3953 3.93067 80.31 4.656C80.2673 4.912 80.1607 5.12533 79.99 5.296C79.862 5.424 79.734 5.59467 79.606 5.808L79.158 6.448C78.9873 6.74667 78.774 7.04533 78.518 7.344C78.3047 7.64267 78.1127 7.83467 77.942 7.92C77.7713 8.00533 77.6007 8.15467 77.43 8.368C77.302 8.53867 77.1313 8.70933 76.918 8.88C76.7047 9.05067 76.47 9.17867 76.214 9.264C76.0007 9.30667 75.8513 9.34933 75.766 9.392C75.638 9.43467 75.446 9.456 75.19 9.456C74.9767 9.41333 74.9127 9.328 74.998 9.2C75.0833 9.15733 75.1047 9.11467 75.062 9.072C75.0193 8.98667 74.998 8.92267 74.998 8.88C74.998 8.79467 75.0407 8.73067 75.126 8.688C75.254 8.64533 75.3393 8.58133 75.382 8.496C75.4247 8.45333 75.5313 8.304 75.702 8.048C75.9153 7.792 76.0007 7.64267 75.958 7.6C75.958 7.472 76.0007 7.36533 76.086 7.28C76.086 7.19467 76.086 7.13067 76.086 7.088C76.086 7.00267 76.1287 6.93867 76.214 6.896C76.3847 6.85333 76.47 6.78933 76.47 6.704V5.936C76.47 5.76533 76.4487 5.59467 76.406 5.424C76.406 5.25333 76.3633 5.104 76.278 4.976C75.9367 4.54933 75.382 4.336 74.614 4.336C74.0593 4.336 73.526 4.464 73.014 4.72C72.4593 4.976 71.99 5.40267 71.606 6C71.3073 6.42667 71.158 6.87467 71.158 7.344C71.158 7.68533 71.222 8.02667 71.35 8.368C71.5207 8.70933 71.67 9.02933 71.798 9.328C71.926 9.62667 72.0967 9.98933 72.31 10.416C72.566 10.8427 72.758 11.184 72.886 11.44C73.0993 11.7813 73.334 12.1867 73.59 12.656C73.846 13.0827 74.038 13.488 74.166 13.872C74.2087 13.9147 74.166 13.9573 74.038 14C73.9527 14 73.9313 14.0427 73.974 14.128C74.0167 14.2133 74.0807 14.256 74.166 14.256C74.2513 14.256 74.3153 14.2987 74.358 14.384C74.4433 14.512 74.4433 14.6187 74.358 14.704C74.3153 14.7893 74.3153 14.9173 74.358 15.088C74.358 15.1307 74.4007 15.1733 74.486 15.216C74.5713 15.2587 74.614 15.3013 74.614 15.344C74.8273 15.8987 74.934 16.3467 74.934 16.688C75.318 16.4747 75.7447 16.2187 76.214 15.92C76.6833 15.6213 76.9393 15.344 76.982 15.088C77.0247 15.0027 77.0887 14.9813 77.174 15.024C77.302 15.024 77.366 15.0667 77.366 15.152C77.3233 15.4507 76.9607 15.856 76.278 16.368C75.638 16.88 75.1473 17.2427 74.806 17.456C74.8487 17.4987 74.8273 17.6053 74.742 17.776C74.6567 17.9467 74.6353 18.0747 74.678 18.16C74.678 18.2027 74.6567 18.2667 74.614 18.352C74.5713 18.3947 74.5287 18.4587 74.486 18.544C74.486 18.7147 74.4433 18.8427 74.358 18.928V19.056L74.166 19.184C74.1233 19.2267 74.0593 19.3333 73.974 19.504C73.9313 19.632 73.8673 19.7387 73.782 19.824H73.59C73.5047 19.9093 73.462 20.016 73.462 20.144C73.3767 20.272 73.1847 20.4213 72.886 20.592C72.5873 20.72 72.3953 20.848 72.31 20.976C72.31 20.976 72.2887 20.976 72.246 20.976C72.2033 20.976 72.1393 21.0187 72.054 21.104H71.862C71.8193 21.104 71.7767 21.1467 71.734 21.232C71.6913 21.2747 71.6487 21.3173 71.606 21.36C71.478 21.36 71.414 21.4027 71.414 21.488C71.2433 21.488 71.1153 21.5093 71.03 21.552L70.39 21.68C70.2193 21.8507 70.07 21.936 69.942 21.936L69.878 21.872C69.7927 21.9573 69.7287 22 69.686 22H69.43C69.3873 22 69.3447 22.0213 69.302 22.064C69.2593 22.1067 69.2167 22.128 69.174 22.128H69.046C69.0033 22.128 68.9607 22.128 68.918 22.128C68.918 22.1707 68.8753 22.192 68.79 22.192C68.662 22.192 68.47 22.192 68.214 22.192C68.0007 22.192 67.83 22.2133 67.702 22.256ZM67.062 21.68C67.062 21.68 67.1047 21.68 67.19 21.68C67.318 21.6373 67.4033 21.616 67.446 21.616C67.6593 21.616 67.8513 21.6373 68.022 21.68C68.1927 21.68 68.3633 21.68 68.534 21.68C68.6193 21.68 68.662 21.6373 68.662 21.552H68.79C68.918 21.424 68.982 21.4027 68.982 21.488C69.0247 21.5733 69.0887 21.5733 69.174 21.488C69.2593 21.488 69.302 21.4667 69.302 21.424L69.558 21.296C69.6007 21.296 69.622 21.296 69.622 21.296C69.622 21.2533 69.6433 21.232 69.686 21.232H69.814C69.8993 21.232 69.9847 21.1893 70.07 21.104C70.1553 21.0187 70.198 20.976 70.198 20.976C70.198 20.976 70.262 20.912 70.39 20.784C70.39 20.784 70.4113 20.784 70.454 20.784C70.4967 20.7413 70.5393 20.72 70.582 20.72C70.6673 20.6347 70.7527 20.592 70.838 20.592C70.838 20.5493 70.8807 20.5067 70.966 20.464C71.0513 20.3787 71.094 20.336 71.094 20.336C71.1367 20.2933 71.1793 20.272 71.222 20.272C71.3073 20.2293 71.35 20.1867 71.35 20.144C71.4353 20.144 71.606 19.9947 71.862 19.696C72.118 19.3973 72.2887 19.0347 72.374 18.608C72.374 18.5227 72.246 18.5867 71.99 18.8C71.734 18.9707 71.606 19.056 71.606 19.056C71.478 19.0987 71.35 19.184 71.222 19.312C71.094 19.3973 70.9873 19.44 70.902 19.44C70.8593 19.44 70.7953 19.4827 70.71 19.568C70.6673 19.6107 70.6247 19.632 70.582 19.632C70.5393 19.632 70.518 19.6533 70.518 19.696C70.518 19.696 70.4753 19.6747 70.39 19.632C70.3473 19.7173 70.2193 19.8027 70.006 19.888C69.7927 19.9733 69.6433 20.016 69.558 20.016H69.366L69.302 20.08C69.302 20.08 69.2807 20.1013 69.238 20.144C69.1953 20.144 69.1527 20.144 69.11 20.144L68.662 20.208H68.598C68.5553 20.208 68.5127 20.2293 68.47 20.272C68.2993 20.272 68.1073 20.2933 67.894 20.336C67.6807 20.3787 67.5527 20.4 67.51 20.4H67.446C67.446 20.3573 67.4247 20.336 67.382 20.336V20.4H67.062C66.934 20.4 66.7847 20.3787 66.614 20.336C66.486 20.2507 66.3793 20.208 66.294 20.208C66.2513 20.208 66.23 20.2293 66.23 20.272C66.23 20.272 66.2087 20.272 66.166 20.272H66.038C65.9953 20.272 65.974 20.2507 65.974 20.208H65.654C65.654 20.08 65.6113 20.0587 65.526 20.144H65.462C65.2913 20.144 65.142 20.08 65.014 19.952C64.9287 19.824 64.7793 19.76 64.566 19.76L64.374 19.568C64.374 19.6107 64.3527 19.6533 64.31 19.696C64.31 19.696 64.31 19.7173 64.31 19.76C64.31 19.76 64.3313 19.8027 64.374 19.888C64.4593 19.9307 64.502 19.9733 64.502 20.016L64.63 20.272L64.886 20.592L65.014 20.72C65.0567 20.7627 65.078 20.784 65.078 20.784C65.1207 20.784 65.1633 20.8267 65.206 20.912C65.2913 20.912 65.334 20.976 65.334 21.104C66.0593 21.488 66.6353 21.68 67.062 21.68ZM91.0275 22.192C90.7715 22.192 90.6435 22.0427 90.6435 21.744C90.6435 21.5307 90.7075 21.2747 90.8355 20.976C91.1768 20.2507 91.5608 19.2267 91.9875 17.904C92.4568 16.5813 93.0328 15.4507 93.7155 14.512C94.1848 13.5733 94.6115 12.656 94.9955 11.76C95.4222 10.8213 95.8275 9.88267 96.2115 8.944C96.2115 8.944 96.1688 8.92267 96.0835 8.88C95.9982 8.79467 95.9555 8.70933 95.9555 8.624C95.7422 8.45333 95.4862 8.21867 95.1875 7.92C94.8888 7.57867 94.8675 7.23733 95.1235 6.896C95.2088 6.81067 95.2515 6.768 95.2515 6.768C95.2942 6.768 95.3155 6.768 95.3155 6.768C95.3155 6.72533 95.2942 6.704 95.2515 6.704C95.2515 6.704 95.2515 6.68267 95.2515 6.64L95.1875 6.576C95.1448 6.576 95.1022 6.576 95.0595 6.576C95.0595 6.53333 95.0382 6.512 94.9955 6.512C94.8248 6.512 94.6328 6.55467 94.4195 6.64C94.2062 6.68267 93.9928 6.704 93.7795 6.704C93.5235 6.704 93.1822 6.81067 92.7555 7.024C92.3288 7.19467 91.9448 7.344 91.6035 7.472C91.4328 7.51467 91.3262 7.536 91.2835 7.536C91.2835 7.49333 91.1982 7.51467 91.0275 7.6C90.9848 7.64267 90.9848 7.57867 91.0275 7.408C91.1128 7.19467 91.1555 7.04533 91.1555 6.96C91.1555 6.91733 91.1342 6.896 91.0915 6.896C91.0062 6.896 90.8355 7.024 90.5795 7.28C90.3235 7.49333 90.1528 7.62133 90.0675 7.664C90.0248 7.70667 90.0035 7.77067 90.0035 7.856C90.0462 7.94133 90.0675 8.02667 90.0675 8.112C90.0675 8.24 89.9608 8.38933 89.7475 8.56C89.5342 8.688 89.3848 8.79467 89.2995 8.88C89.1288 9.008 88.9155 9.09333 88.6595 9.136C88.4462 9.136 88.2328 9.22133 88.0195 9.392C87.7635 9.56267 87.6355 9.69067 87.6355 9.776C87.6782 9.86133 87.5502 10.0107 87.2515 10.224C86.8675 10.5227 86.3342 10.9707 85.6515 11.568C85.0115 12.1653 84.5208 12.6987 84.1795 13.168C83.3688 14.1493 82.6222 15.28 81.9395 16.56C81.2995 17.84 80.9795 18.8427 80.9795 19.568C80.9795 20.1227 81.2142 20.4 81.6835 20.4C81.7688 20.4 81.8542 20.4 81.9395 20.4C82.0248 20.3573 82.1315 20.3147 82.2595 20.272L83.9235 19.312L84.3075 19.248V19.184L84.5635 19.376C84.6062 19.3333 84.5848 19.2693 84.4995 19.184C84.4568 19.056 84.4568 18.992 84.4995 18.992C84.5422 18.992 84.5635 19.0133 84.5635 19.056C84.6062 19.056 84.6488 19.056 84.6915 19.056L84.8195 18.864C84.8195 18.864 84.8835 18.8853 85.0115 18.928C85.1822 18.928 85.3102 18.8853 85.3955 18.8C85.5235 18.7573 85.5448 18.6933 85.4595 18.608C85.4168 18.5227 85.3528 18.4587 85.2675 18.416L85.7155 18.032C85.7582 17.9467 85.9288 17.8613 86.2275 17.776C86.9528 17.3067 87.5502 16.752 88.0195 16.112C88.5315 15.4293 89.1075 14.8107 89.7475 14.256H89.8115L90.5795 13.488L90.5155 13.296L91.3475 12.336H91.4755C91.5182 12.2507 91.6035 12.144 91.7315 12.016C91.9022 11.888 92.0088 11.7813 92.0515 11.696C92.1368 11.6533 92.3288 11.44 92.6275 11.056C92.9688 10.6293 93.2888 10.288 93.5875 10.032C93.9288 9.776 94.1208 9.648 94.1635 9.648C94.2062 9.648 94.2275 9.66933 94.2275 9.712C94.2275 9.84 94.1635 10.032 94.0355 10.288C93.9502 10.544 93.8648 10.7147 93.7795 10.8C93.4808 11.2693 93.0968 11.8027 92.6275 12.4C92.1582 12.9547 91.8808 13.296 91.7955 13.424C91.2835 13.9787 90.6648 14.7253 89.9395 15.664C89.2142 16.56 88.4248 17.456 87.5715 18.352C86.7182 19.248 85.8648 20.016 85.0115 20.656C84.2008 21.2533 83.4328 21.552 82.7075 21.552C82.0248 21.552 81.2995 21.3387 80.5315 20.912C79.7635 20.4853 79.3795 19.6747 79.3795 18.48C79.3795 18.096 79.4222 17.6693 79.5075 17.2C79.6355 16.688 79.8275 16.1547 80.0835 15.6C80.0835 15.6 80.1262 15.5573 80.2115 15.472C80.2968 15.344 80.3608 15.3013 80.4035 15.344C80.4888 15.216 80.5102 15.088 80.4675 14.96C80.4675 14.7893 80.4675 14.6827 80.4675 14.64L80.5955 14.512C80.6808 14.0427 81.0008 13.616 81.5555 13.232C82.1102 12.848 82.4088 12.5493 82.4515 12.336C82.4942 12.2933 82.5155 12.2293 82.5155 12.144L82.7715 11.312V11.056H83.0275L83.2195 10.8L83.2835 10.672C83.1982 10.6293 83.2195 10.5653 83.3475 10.48C83.5182 10.352 83.6035 10.288 83.6035 10.288C83.6462 10.2027 83.6888 10.1387 83.7315 10.096C83.8168 10.0533 83.8808 10.0107 83.9235 9.968H84.3715C84.4568 9.84 84.4142 9.776 84.2435 9.776C84.0728 9.776 83.9875 9.776 83.9875 9.776C83.9875 9.73333 83.9875 9.712 83.9875 9.712C84.0302 9.66933 84.0515 9.62667 84.0515 9.584L84.7555 9.008C84.9688 8.83733 85.1822 8.688 85.3955 8.56C85.6088 8.432 85.8008 8.28267 85.9715 8.112C86.0995 8.112 86.1208 8.176 86.0355 8.304C86.0782 8.38933 86.1208 8.38933 86.1635 8.304C86.2488 8.21867 86.2915 8.176 86.2915 8.176L86.6115 8.112V8.048C86.6115 7.96267 86.6328 7.83467 86.6755 7.664C86.7182 7.49333 86.7395 7.38667 86.7395 7.344C87.6355 6.66133 88.5742 6.064 89.5555 5.552C90.5368 4.99733 91.4968 4.72 92.4355 4.72C93.5448 4.72 94.5475 5.14667 95.4435 6L95.7635 6.192C95.8062 6.192 95.8275 6.17067 95.8275 6.128C95.9128 5.53067 96.4035 5.08267 97.2995 4.784C98.2382 4.48533 99.0702 4.336 99.7955 4.336C100.564 4.336 100.948 4.44267 100.948 4.656C100.948 4.74133 100.82 4.89067 100.564 5.104C100.436 5.18933 100.222 5.38133 99.9235 5.68C99.6248 5.97867 99.3262 6.34133 99.0275 6.768C98.9848 6.896 98.9208 7.024 98.8355 7.152C98.7502 7.28 98.6648 7.408 98.5795 7.536C98.5368 7.62133 98.4728 7.728 98.3875 7.856C98.3448 7.94133 98.2808 8.02667 98.1955 8.112C97.4702 9.34933 96.8942 10.3947 96.4675 11.248C96.0408 12.1013 95.5288 13.1893 94.9315 14.512C94.8462 14.768 94.8035 14.9173 94.8035 14.96C94.8035 15.3013 94.9955 15.472 95.3795 15.472C95.6355 15.472 95.8915 15.408 96.1475 15.28L96.7875 15.024C97.8115 14.0853 98.8782 13.296 99.9875 12.656C100.03 12.656 100.052 12.656 100.052 12.656C100.094 12.6133 100.137 12.592 100.18 12.592C100.308 12.592 100.393 12.6773 100.436 12.848C100.478 12.976 100.436 13.0827 100.308 13.168C99.0702 13.8507 97.9182 14.7253 96.8515 15.792C96.8088 15.8773 96.7662 15.9627 96.7235 16.048C96.6808 16.1333 96.6168 16.2187 96.5315 16.304C96.4035 16.3893 96.2755 16.5387 96.1475 16.752C96.0195 16.9653 95.9555 17.0933 95.9555 17.136C95.9128 17.264 95.8488 17.3067 95.7635 17.264C95.7208 17.2213 95.5928 17.2853 95.3795 17.456C95.3368 17.4987 95.2942 17.584 95.2515 17.712C95.2515 17.84 95.2302 17.9467 95.1875 18.032C95.1022 18.16 95.0168 18.2667 94.9315 18.352C94.8462 18.3947 94.8035 18.4373 94.8035 18.48C94.7608 18.6507 94.6755 18.7573 94.5475 18.8C94.4622 18.8 94.3768 18.8427 94.2915 18.928C94.2488 18.928 94.2275 18.9493 94.2275 18.992C94.2275 19.376 94.1848 19.5467 94.0995 19.504C94.0142 19.4613 93.9288 19.504 93.8435 19.632C93.7582 19.8027 93.6515 19.888 93.5235 19.888C93.2675 19.9733 93.1608 20.0373 93.2035 20.08C93.2888 20.1227 93.3528 20.1653 93.3955 20.208C93.4808 20.208 93.4168 20.272 93.2035 20.4C93.1182 20.4427 93.0328 20.5707 92.9475 20.784C92.8622 20.9547 92.7768 21.0827 92.6915 21.168C92.5635 21.2533 92.4355 21.3173 92.3075 21.36C92.1795 21.4027 92.0728 21.488 91.9875 21.616C91.6035 22 91.2835 22.192 91.0275 22.192ZM99.6965 22.192C99.4405 22.192 99.3125 22.0427 99.3125 21.744C99.3125 21.5307 99.3765 21.2747 99.5045 20.976C99.8458 20.2507 100.251 19.2267 100.721 17.904C101.19 16.5813 101.766 15.4507 102.449 14.512L104.945 8.944C104.945 8.944 104.902 8.92267 104.817 8.88C104.731 8.79467 104.689 8.70933 104.689 8.624C104.433 8.45333 104.155 8.21867 103.857 7.92C103.601 7.57867 103.579 7.23733 103.793 6.896C103.878 6.81067 103.942 6.768 103.985 6.768C104.027 6.768 104.049 6.768 104.049 6.768V6.64C104.049 6.46933 104.113 6.36267 104.241 6.32C104.411 6.27733 104.518 6.21333 104.561 6.128C104.646 5.53067 105.137 5.08267 106.033 4.784C106.971 4.48533 107.803 4.336 108.529 4.336C109.254 4.336 109.617 4.44267 109.617 4.656C109.617 4.784 109.489 4.93333 109.233 5.104C109.147 5.18933 108.934 5.38133 108.593 5.68C108.294 5.97867 108.017 6.34133 107.76 6.768L107.312 7.536L106.865 8.112C106.182 9.34933 105.627 10.3947 105.201 11.248C104.774 12.1013 104.262 13.1893 103.665 14.512C103.537 14.768 103.473 14.9813 103.473 15.152C103.473 15.3653 103.558 15.472 103.729 15.472C103.814 15.472 103.899 15.4507 103.985 15.408C104.113 15.3227 104.241 15.2587 104.369 15.216C104.71 15.0027 104.987 14.8107 105.201 14.64C105.457 14.4267 105.734 14.2133 106.033 14C106.161 13.872 106.267 13.872 106.353 14C106.438 14.0853 106.438 14.2133 106.353 14.384C106.182 14.7253 106.054 14.9387 105.969 15.024C105.926 15.0667 105.862 15.1093 105.777 15.152C105.691 15.1947 105.499 15.3867 105.201 15.728L104.945 16.24C104.859 16.3253 104.753 16.496 104.625 16.752C104.539 16.9653 104.497 17.0933 104.497 17.136C104.497 17.2213 104.454 17.264 104.369 17.264C104.283 17.2213 104.155 17.2853 103.985 17.456C103.942 17.4987 103.921 17.584 103.921 17.712C103.963 17.84 103.942 17.9467 103.857 18.032C103.814 18.16 103.75 18.2667 103.665 18.352C103.579 18.3947 103.536 18.4373 103.536 18.48C103.494 18.6507 103.409 18.7573 103.281 18.8C103.195 18.8 103.11 18.8427 103.025 18.928C102.982 18.928 102.961 18.9707 102.961 19.056C102.961 19.3973 102.918 19.5467 102.833 19.504C102.747 19.4613 102.662 19.504 102.577 19.632C102.491 19.8027 102.385 19.888 102.257 19.888C102.001 19.9733 101.894 20.0373 101.937 20.08C101.979 20.1227 102.043 20.1653 102.129 20.208C102.214 20.208 102.15 20.272 101.937 20.4C101.809 20.4427 101.702 20.5707 101.617 20.784C101.531 20.9547 101.446 21.0827 101.361 21.168C101.275 21.2533 101.169 21.3173 101.041 21.36C100.913 21.4027 100.806 21.488 100.721 21.616C100.337 22 99.9952 22.192 99.6965 22.192ZM118.769 21.68C118.598 21.68 118.449 21.68 118.321 21.68C118.193 21.6373 118.065 21.5947 117.937 21.552C117.51 21.4667 117.126 21.3387 116.785 21.168C116.486 20.9973 116.23 20.6773 116.017 20.208C115.974 19.9947 115.867 19.7173 115.697 19.376C115.569 19.0347 115.483 18.7147 115.441 18.416C115.398 18.2027 115.377 17.9467 115.377 17.648C115.334 17.4347 115.312 17.1573 115.312 16.816C115.227 16.3893 115.185 16.0053 115.185 15.664C115.227 15.3227 115.249 14.9173 115.249 14.448C115.249 13.9787 115.27 13.6373 115.312 13.424C115.398 13.04 115.441 12.848 115.441 12.848C115.441 12.8053 115.441 12.592 115.441 12.208C115.483 11.696 115.505 11.1627 115.505 10.608C115.505 10.0533 115.526 9.60533 115.569 9.264C115.697 7.984 115.441 7.344 114.801 7.344C114.545 7.344 114.203 7.45067 113.777 7.664C113.734 7.792 113.649 7.87733 113.521 7.92C113.435 7.92 113.307 7.96267 113.137 8.048L112.817 8.24C112.817 8.28267 112.774 8.304 112.689 8.304C112.603 8.26133 112.561 8.28267 112.561 8.368C112.603 8.53867 112.582 8.64533 112.497 8.688C112.454 8.73067 112.39 8.70933 112.305 8.624L111.601 9.136C111.601 9.17867 111.537 9.264 111.409 9.392L111.345 9.456C111.174 9.62667 111.025 9.712 110.897 9.712L110.705 9.904C110.705 9.94667 110.662 10.032 110.577 10.16C110.534 10.2453 110.427 10.2667 110.257 10.224L109.937 10.544C109.766 10.8 109.617 10.9493 109.489 10.992C109.403 11.0347 109.297 11.0773 109.169 11.12L108.657 11.76L108.401 11.824C108.401 11.9947 108.209 12.2507 107.825 12.592C107.483 12.9333 107.249 13.168 107.121 13.296C106.993 13.424 106.865 13.488 106.737 13.488C106.651 13.488 106.609 13.4453 106.609 13.36C106.609 13.3173 106.715 13.1467 106.929 12.848C107.099 12.6773 107.355 12.3573 107.697 11.888C108.081 11.4187 108.294 11.2053 108.337 11.248C108.55 11.0347 108.699 10.8213 108.785 10.608C108.87 10.352 109.019 10.1387 109.233 9.968C109.233 10.0107 109.233 10.0533 109.233 10.096C109.275 10.096 109.297 10.096 109.297 10.096C109.382 10.096 109.489 9.98933 109.617 9.776C109.745 9.52 109.83 9.41333 109.873 9.456L110.961 8.496C110.961 8.45333 111.067 8.368 111.281 8.24C111.451 8.15467 111.558 8.112 111.601 8.112C111.643 8.112 111.75 7.984 111.921 7.728L112.369 7.408C112.411 7.32267 112.454 7.344 112.497 7.472C112.582 7.55733 112.646 7.57867 112.689 7.536L112.881 7.088C112.966 6.96 113.094 6.85333 113.265 6.768C113.478 6.64 113.691 6.512 113.905 6.384C114.417 5.872 114.801 5.616 115.057 5.616H115.312C115.867 5.40267 116.379 5.296 116.849 5.296C117.531 5.296 118.065 5.552 118.449 6.064C118.534 6.192 118.619 6.42667 118.705 6.768C118.79 6.81067 118.811 6.87467 118.769 6.96C118.769 7.00267 118.79 7.06667 118.833 7.152C118.875 7.23733 118.961 7.344 119.089 7.472C119.217 7.55733 119.281 7.664 119.281 7.792V7.92C119.281 8.09067 119.174 8.24 118.961 8.368C119.174 8.53867 119.259 8.64533 119.217 8.688C119.217 8.688 119.195 8.752 119.153 8.88L119.025 9.776C118.982 10.0747 118.918 10.3093 118.833 10.48C118.747 10.608 118.662 10.8427 118.577 11.184C118.747 11.44 118.747 11.6107 118.577 11.696H118.449L118.385 11.952C118.385 12.0373 118.427 12.1227 118.513 12.208L118.321 12.592C118.363 12.5493 118.385 12.5493 118.385 12.592C118.427 12.592 118.449 12.592 118.449 12.592C118.406 12.6773 118.342 12.848 118.257 13.104C118.171 13.3173 118.107 13.488 118.065 13.616C118.022 13.8293 117.937 13.936 117.809 13.936C117.681 13.936 117.638 14.0427 117.681 14.256C117.723 14.2987 117.745 14.448 117.745 14.704C117.787 14.9173 117.766 15.024 117.681 15.024L117.553 15.792V15.984C117.553 16.1973 117.51 16.4107 117.425 16.624C117.382 16.8373 117.339 17.0507 117.297 17.264C117.254 17.4773 117.211 17.712 117.169 17.968C117.169 18.1813 117.169 18.3947 117.169 18.608C117.169 18.7787 117.169 18.9707 117.169 19.184C117.211 19.3547 117.254 19.5253 117.297 19.696C117.297 19.7387 117.361 19.8667 117.489 20.08C117.617 20.2933 117.681 20.4213 117.681 20.464L117.873 20.656C117.958 20.6987 118.086 20.6987 118.257 20.656C118.47 20.6133 118.619 20.6347 118.705 20.72C119.089 20.7627 119.579 20.5707 120.177 20.144C120.817 19.6747 121.393 19.1627 121.905 18.608C122.033 18.48 122.161 18.416 122.289 18.416C122.374 18.416 122.438 18.48 122.481 18.608C122.523 18.736 122.481 18.9067 122.353 19.12C121.67 20.1013 121.03 20.784 120.433 21.168C119.835 21.5093 119.281 21.68 118.769 21.68ZM135.028 22.192C134.772 22.192 134.644 22.0427 134.644 21.744C134.644 21.5307 134.708 21.2747 134.836 20.976C135.177 20.2507 135.561 19.2267 135.988 17.904C136.457 16.5813 137.033 15.4507 137.716 14.512C138.185 13.5733 138.612 12.656 138.996 11.76C139.422 10.8213 139.828 9.88267 140.212 8.944C140.212 8.944 140.169 8.92267 140.083 8.88C139.998 8.79467 139.956 8.70933 139.956 8.624C139.742 8.45333 139.486 8.21867 139.188 7.92C138.889 7.57867 138.868 7.23733 139.124 6.896C139.209 6.81067 139.252 6.768 139.252 6.768C139.294 6.768 139.316 6.768 139.316 6.768C139.316 6.72533 139.294 6.704 139.252 6.704C139.252 6.704 139.252 6.68267 139.252 6.64L139.188 6.576C139.145 6.576 139.102 6.576 139.06 6.576C139.06 6.53333 139.038 6.512 138.996 6.512C138.825 6.512 138.633 6.55467 138.42 6.64C138.206 6.68267 137.993 6.704 137.78 6.704C137.524 6.704 137.182 6.81067 136.756 7.024C136.329 7.19467 135.945 7.344 135.604 7.472C135.433 7.51467 135.326 7.536 135.284 7.536C135.284 7.49333 135.198 7.51467 135.028 7.6C134.985 7.64267 134.985 7.57867 135.028 7.408C135.113 7.19467 135.156 7.04533 135.156 6.96C135.156 6.91733 135.134 6.896 135.092 6.896C135.006 6.896 134.836 7.024 134.58 7.28C134.324 7.49333 134.153 7.62133 134.068 7.664C134.025 7.70667 134.004 7.77067 134.004 7.856C134.046 7.94133 134.068 8.02667 134.068 8.112C134.068 8.24 133.961 8.38933 133.748 8.56C133.534 8.688 133.385 8.79467 133.3 8.88C133.129 9.008 132.916 9.09333 132.66 9.136C132.446 9.136 132.233 9.22133 132.02 9.392C131.764 9.56267 131.635 9.69067 131.635 9.776C131.678 9.86133 131.55 10.0107 131.252 10.224C130.868 10.5227 130.334 10.9707 129.652 11.568C129.012 12.1653 128.521 12.6987 128.18 13.168C127.369 14.1493 126.622 15.28 125.94 16.56C125.3 17.84 124.98 18.8427 124.98 19.568C124.98 20.1227 125.214 20.4 125.684 20.4C125.769 20.4 125.854 20.4 125.94 20.4C126.025 20.3573 126.132 20.3147 126.26 20.272L127.924 19.312L128.308 19.248V19.184L128.564 19.376C128.606 19.3333 128.585 19.2693 128.5 19.184C128.457 19.056 128.457 18.992 128.5 18.992C128.542 18.992 128.564 19.0133 128.564 19.056C128.606 19.056 128.649 19.056 128.692 19.056L128.82 18.864C128.82 18.864 128.884 18.8853 129.012 18.928C129.182 18.928 129.31 18.8853 129.396 18.8C129.524 18.7573 129.545 18.6933 129.46 18.608C129.417 18.5227 129.353 18.4587 129.268 18.416L129.716 18.032C129.758 17.9467 129.929 17.8613 130.228 17.776C130.953 17.3067 131.55 16.752 132.02 16.112C132.532 15.4293 133.108 14.8107 133.748 14.256H133.812L134.58 13.488L134.516 13.296L135.348 12.336H135.476C135.518 12.2507 135.604 12.144 135.732 12.016C135.902 11.888 136.009 11.7813 136.052 11.696C136.137 11.6533 136.329 11.44 136.628 11.056C136.969 10.6293 137.289 10.288 137.588 10.032C137.929 9.776 138.121 9.648 138.164 9.648C138.206 9.648 138.228 9.66933 138.228 9.712C138.228 9.84 138.164 10.032 138.036 10.288C137.95 10.544 137.865 10.7147 137.78 10.8C137.481 11.2693 137.097 11.8027 136.628 12.4C136.158 12.9547 135.881 13.296 135.796 13.424C135.284 13.9787 134.665 14.7253 133.94 15.664C133.214 16.56 132.425 17.456 131.572 18.352C130.718 19.248 129.865 20.016 129.012 20.656C128.201 21.2533 127.433 21.552 126.708 21.552C126.025 21.552 125.3 21.3387 124.532 20.912C123.764 20.4853 123.38 19.6747 123.38 18.48C123.38 18.096 123.422 17.6693 123.508 17.2C123.636 16.688 123.828 16.1547 124.084 15.6C124.084 15.6 124.126 15.5573 124.212 15.472C124.297 15.344 124.361 15.3013 124.404 15.344C124.489 15.216 124.51 15.088 124.468 14.96C124.468 14.7893 124.468 14.6827 124.468 14.64L124.596 14.512C124.681 14.0427 125.001 13.616 125.556 13.232C126.11 12.848 126.409 12.5493 126.452 12.336C126.494 12.2933 126.516 12.2293 126.516 12.144L126.772 11.312V11.056H127.028L127.22 10.8L127.284 10.672C127.198 10.6293 127.22 10.5653 127.348 10.48C127.518 10.352 127.604 10.288 127.604 10.288C127.646 10.2027 127.689 10.1387 127.732 10.096C127.817 10.0533 127.881 10.0107 127.924 9.968H128.372C128.457 9.84 128.414 9.776 128.244 9.776C128.073 9.776 127.988 9.776 127.988 9.776C127.988 9.73333 127.988 9.712 127.988 9.712C128.03 9.66933 128.052 9.62667 128.052 9.584L128.756 9.008C128.969 8.83733 129.182 8.688 129.396 8.56C129.609 8.432 129.801 8.28267 129.972 8.112C130.1 8.112 130.121 8.176 130.036 8.304C130.078 8.38933 130.121 8.38933 130.164 8.304C130.249 8.21867 130.292 8.176 130.292 8.176L130.612 8.112V8.048C130.612 7.96267 130.633 7.83467 130.676 7.664C130.718 7.49333 130.74 7.38667 130.74 7.344C131.636 6.66133 132.574 6.064 133.556 5.552C134.537 4.99733 135.497 4.72 136.436 4.72C137.545 4.72 138.548 5.14667 139.444 6L139.764 6.192C139.806 6.192 139.828 6.17067 139.828 6.128C139.913 5.53067 140.404 5.08267 141.3 4.784C142.238 4.48533 143.07 4.336 143.796 4.336C144.564 4.336 144.948 4.44267 144.948 4.656C144.948 4.74133 144.82 4.89067 144.564 5.104C144.436 5.18933 144.222 5.38133 143.924 5.68C143.625 5.97867 143.326 6.34133 143.028 6.768C142.985 6.896 142.921 7.024 142.836 7.152C142.75 7.28 142.665 7.408 142.58 7.536C142.537 7.62133 142.473 7.728 142.388 7.856C142.345 7.94133 142.281 8.02667 142.196 8.112C141.47 9.34933 140.894 10.3947 140.468 11.248C140.041 12.1013 139.529 13.1893 138.932 14.512C138.846 14.768 138.804 14.9173 138.804 14.96C138.804 15.3013 138.996 15.472 139.38 15.472C139.636 15.472 139.892 15.408 140.148 15.28L140.788 15.024C141.812 14.0853 142.878 13.296 143.988 12.656C144.03 12.656 144.052 12.656 144.052 12.656C144.094 12.6133 144.137 12.592 144.18 12.592C144.308 12.592 144.393 12.6773 144.436 12.848C144.478 12.976 144.436 13.0827 144.308 13.168C143.07 13.8507 141.918 14.7253 140.852 15.792C140.809 15.8773 140.766 15.9627 140.724 16.048C140.681 16.1333 140.617 16.2187 140.532 16.304C140.404 16.3893 140.276 16.5387 140.148 16.752C140.02 16.9653 139.956 17.0933 139.956 17.136C139.913 17.264 139.849 17.3067 139.764 17.264C139.721 17.2213 139.593 17.2853 139.38 17.456C139.337 17.4987 139.294 17.584 139.252 17.712C139.252 17.84 139.23 17.9467 139.188 18.032C139.102 18.16 139.017 18.2667 138.932 18.352C138.846 18.3947 138.804 18.4373 138.804 18.48C138.761 18.6507 138.676 18.7573 138.548 18.8C138.462 18.8 138.377 18.8427 138.292 18.928C138.249 18.928 138.228 18.9493 138.228 18.992C138.228 19.376 138.185 19.5467 138.1 19.504C138.014 19.4613 137.929 19.504 137.844 19.632C137.758 19.8027 137.652 19.888 137.524 19.888C137.268 19.9733 137.161 20.0373 137.204 20.08C137.289 20.1227 137.353 20.1653 137.396 20.208C137.481 20.208 137.417 20.272 137.204 20.4C137.118 20.4427 137.033 20.5707 136.948 20.784C136.862 20.9547 136.777 21.0827 136.692 21.168C136.564 21.2533 136.436 21.3173 136.308 21.36C136.18 21.4027 136.073 21.488 135.988 21.616C135.604 22 135.284 22.192 135.028 22.192Z" fill="#F2BA60"/> </svg>