<svg width="39" height="30" viewBox="0 0 39 30" fill="none" xmlns="http://www.w3.org/2000/svg">
<path d="M36.4622 0H2.43082C1.78612 0 1.16784 0.263382 0.711969 0.732205C0.256103 1.20103 0 1.83689 0 2.49991V27.499C0 28.162 0.256103 28.7978 0.711969 29.2667C1.16784 29.7355 1.78612 29.9989 2.43082 29.9989H36.4622C37.1069 29.9989 37.7252 29.7355 38.1811 29.2667C38.637 28.7978 38.8931 28.162 38.8931 27.499V2.49991C38.8931 1.83689 38.637 1.20103 38.1811 0.732205C37.7252 0.263382 37.1069 0 36.4622 0ZM34.5905 27.499H4.44839L12.9562 18.4493L11.2061 16.7119L2.43082 26.049V4.39984L17.5383 19.8618C17.9938 20.3274 18.6099 20.5887 19.2521 20.5887C19.8942 20.5887 20.5103 20.3274 20.9658 19.8618L36.4622 4.01235V25.8865L27.5168 16.6869L25.8031 18.4493L34.5905 27.499ZM4.023 2.49991H34.4933L19.2521 18.0868L4.023 2.49991Z" fill="#F5F5F5"/>
</svg>
