<svg width="28" height="38" viewBox="0 0 28 38" fill="none" xmlns="http://www.w3.org/2000/svg">
<path d="M27.5097 13.1245C27.5097 11.401 27.1539 9.69431 26.4627 8.10198C25.7715 6.50964 24.7583 5.0628 23.481 3.84408C22.2038 2.62536 20.6874 1.65861 19.0186 0.999044C17.3498 0.339475 15.5612 0 13.7549 0C11.9485 0 10.1599 0.339475 8.4911 0.999044C6.82229 1.65861 5.30596 2.62536 4.02871 3.84408C2.75145 5.0628 1.73827 6.50964 1.04703 8.10198C0.35578 9.69431 -2.69162e-08 11.401 0 13.1245C0 15.725 0.803677 18.1437 2.1713 20.1836H2.15558L13.7549 37.4986L25.3541 20.1836H25.3404C26.7569 18.0773 27.5098 15.6272 27.5097 13.1245ZM13.7549 18.7493C12.1914 18.7493 10.692 18.1567 9.58651 17.1018C8.48099 16.047 7.85992 14.6163 7.85992 13.1245C7.85992 11.6327 8.48099 10.202 9.58651 9.14718C10.692 8.09233 12.1914 7.49972 13.7549 7.49972C15.3183 7.49972 16.8177 8.09233 17.9232 9.14718C19.0287 10.202 19.6498 11.6327 19.6498 13.1245C19.6498 14.6163 19.0287 16.047 17.9232 17.1018C16.8177 18.1567 15.3183 18.7493 13.7549 18.7493Z" fill="white"/>
</svg>
