<svg width="34" height="30" viewBox="0 0 34 30" fill="none" xmlns="http://www.w3.org/2000/svg">
<path d="M31.2646 29.9989C27.4219 29.9989 23.6252 29.2422 19.8747 27.729C16.1242 26.2157 12.7118 24.0697 9.63763 21.2909C6.56342 18.5121 4.18891 15.4289 2.51408 12.0412C0.839257 8.65356 0.00122968 5.22314 0 1.74993C0 1.24995 0.184452 0.833302 0.553356 0.499981C0.922261 0.16666 1.38339 0 1.93675 0H9.40706C9.83745 0 10.2217 0.132217 10.5599 0.396652C10.898 0.661086 11.0979 0.973297 11.1594 1.33328L12.3583 7.1664C12.4198 7.61083 12.4044 7.98581 12.3122 8.29136C12.22 8.5969 12.0509 8.86078 11.8049 9.08299L7.33197 13.1662C7.94681 14.1939 8.67663 15.1867 9.52142 16.1444C10.3662 17.1021 11.2965 18.026 12.3122 18.916C13.2652 19.777 14.2643 20.5759 15.3095 21.3125C16.3548 22.0492 17.4615 22.7225 18.6297 23.3325L22.9643 19.4159C23.241 19.1659 23.6025 18.9787 24.0489 18.8543C24.4952 18.7299 24.933 18.6949 25.3622 18.7493L31.7258 19.9159C32.1562 20.027 32.5097 20.2287 32.7864 20.5209C33.063 20.8131 33.2014 21.1392 33.2014 21.4992V28.2489C33.2014 28.7489 33.0169 29.1656 32.648 29.4989C32.2791 29.8322 31.818 29.9989 31.2646 29.9989Z" fill="white"/>
</svg>
