<svg width="16" height="17" viewBox="0 0 16 17" fill="none" xmlns="http://www.w3.org/2000/svg">
<path d="M14.8714 16.1234L8.93117 9.96137C8.45687 10.3806 7.91142 10.705 7.29482 10.9346C6.67822 11.1642 6.05846 11.279 5.43554 11.279C3.9165 11.279 2.63081 10.7335 1.57849 9.64254C0.526163 8.55158 0 7.21821 0 5.64245C0 4.06668 0.52553 2.73266 1.57659 1.64039C2.62765 0.548109 3.9127 0.0013144 5.43175 2.35979e-06C6.95079 -0.00130968 8.23711 0.544501 9.2907 1.63743C10.3443 2.73037 10.8711 4.06439 10.8711 5.6395C10.8711 6.32307 10.7544 6.98467 10.521 7.62429C10.2877 8.26391 9.98097 8.81104 9.60089 9.26566L15.5411 15.4267L14.8714 16.1234ZM5.43649 10.294C6.69498 10.294 7.75743 9.8446 8.62382 8.94585C9.49022 8.0471 9.92342 6.94465 9.92342 5.63851C9.92342 4.33237 9.49022 3.23025 8.62382 2.33216C7.75743 1.43407 6.69498 0.984692 5.43649 0.984035C4.178 0.983379 3.11524 1.43275 2.24821 2.33216C1.38118 3.23157 0.947979 4.33368 0.948611 5.63851C0.949244 6.94334 1.38244 8.04546 2.24821 8.94486C3.11397 9.84427 4.17642 10.2936 5.43554 10.293" fill="white"/>
</svg>
